<svg version="1" xmlns="http://www.w3.org/2000/svg" width="3200" height="3200" viewBox="0 0 2400.000000 2400.000000"><path d="M817.5 56.6c-2.2.2-9.6.8-16.5 1.4-104 8.7-195 52-267.8 127.5-51.8 53.7-88.8 115.5-113.7 189.8-19.8 59.1-27.9 109.6-27.9 173.2.1 53.7 4.7 90 17.2 135.6l4.8 17.7-7.9 7.8C375.2 740 340.9 780.5 295 840.5c-23.4 30.6-25.6 33.6-27.6 39.7-1.6 4.8-1.6 5.1.3 7.7 1.1 1.4 2.6 2.6 3.4 2.6.7 0 3.3-3.6 5.7-8 9.6-17.5 29.6-45.7 49.9-70.5 15.9-19.4 17.4-21 21.5-23.8 2.2-1.4 5.4-4.7 7.2-7.3 4.5-6.7 57.1-61.1 61.1-63.1l3.3-1.7 2.4 7.7 2.4 7.7-3.5 4.4c-2 2.4-6.8 7.6-10.7 11.5-3.9 3.9-8.9 9.3-11 12.1-6.6 8.7-9.7 11.6-15.7 14.6-3.2 1.6-7.4 4.6-9.5 6.7-3.8 3.9-38.2 47.3-49 61.9-8 10.9-10.1 17.3-5.6 17.3.7 0 9.4-7.8 19.1-17.4 23.2-22.7 25.2-24.3 30.1-23.7.8.1 8 3.8 16 8.2 13.4 7.4 17.9 10.5 16.7 11.7-.2.2-6.9-.4-14.9-1.4-21.8-2.7-27.5-.7-36 12.5-5.6 8.5-8.1 10.8-16.9 15.2-5.9 2.9-7.7 4.4-10.2 8.4-2.8 4.6-3 5.4-2.8 14.3.1 5.2-.2 10.2-.7 11.2-1.2 2.3-7 5-10.7 5-5.3 0-6.5-1.8-7.3-11.4-.5-4.8-1.1-9.1-1.5-9.4-1.3-1.3-9.2 8.7-13.5 16.8l-4.2 8.2 7.7-.7 7.7-.8-.7 2.4c-3.3 10.6-8.7 24.4-10.2 26.1-2.8 3.3-7.7 4.8-14.9 4.8-6.9 0-12.5 2.3-13.8 5.6-.7 1.7.3 2.2 17.1 8 10.7 3.7 11.2 4 11.8 7.1 1.3 7.3-2 12.3-9.9 14.9-7.1 2.3-11.2 4.9-13.6 8.9-5.7 9.2-4.3 14.5 3.9 14.5 2.6 0 7-.7 9.7-1.5 2.7-.8 5-1.5 5.2-1.5.1 0 .2 1.3.2 3 0 1.8-.7 3.3-1.7 3.8s-10 3.3-20.1 6.2c-13.5 3.9-19.1 5-21.5 4.5-1.8-.3-5.5-.9-8.4-1.2-6.3-.6-9.3 1.7-9.3 7 0 4.4 2.1 6.1 9.3 7.6 3.8.8 5.7 1.7 5.7 2.7 0 3.5-3.2 7.1-8.9 10.4l-6.2 3.4 2.3 1.8c4.9 3.7 15.6 9.6 21 11.6l5.6 2.1.7-4.2c1.8-11.3 8.8-20 24.1-30.1 10.9-7.2 14.5-10.4 19.6-18C300.4 999 304 991 308 978c1.8-5.8 3.9-11.8 4.7-13.3 2-3.9 6.5-6.4 14.5-7.8 3.7-.7 7.3-1.8 8-2.6 1.9-2.3-.4-7.5-5-11-2.5-1.9-3.8-3.5-3.1-3.9.6-.3 4.8-.3 9.4.1 9.7.8 13.4-.5 15.5-5.5 1.6-3.8.8-7.8-2.4-12.7-3.7-5.6-4.1-8.4-1.7-11.5 3.2-4 12.1-8.5 19.2-9.8 8.3-1.5 15-5.2 20.5-11.3 2.4-2.7 4.4-5.2 4.4-5.6 0-.4 5.4-5.6 12-11.5s12-11.2 12-11.8c0-.5-1.6-3-3.6-5.4l-3.6-4.4h7.8c4.4 0 8.9-.3 10.1-.6 2.9-.8 15.3-19.7 15.3-23.4 0-.6-1.8-3-4-5.4-4.2-4.6-5.2-7.1-2.2-6.2 12.2 3.9 23.1 3.2 30.5-1.9l3.6-2.4 8.1 11c4.4 6 8 11.4 8 12 0 2.9-7.7 19.1-11.4 23.9-2.3 3-6.2 8.4-8.5 12-2.4 3.6-6.3 8.6-8.6 11.1s-6.3 8.1-8.8 12.5c-2.5 4.3-8.7 12.8-13.6 18.7-5 5.9-11.4 14.2-14.3 18.5-5.3 7.9-23.9 31.8-35.1 45.2-7.4 8.7-17.7 22.7-29.7 40-4.7 6.7-11.9 16-16.2 20.5-11.5 12.3-37.7 53.8-39.5 62.5-.7 3.9 1.9 11.9 6.4 18.9 6 9.6 21.6 24.6 31.2 29.9 4.6 2.6 9.8 6.3 11.5 8.3 1.7 2 5.5 4.8 8.5 6.3s8.4 5.3 12 8.5c3.6 3.2 14.5 11.5 24.1 18.5 9.6 7.1 21.8 17 27 22.1 5.2 5.1 12.2 11 15.5 13.2 9.4 6.4 23.7 17.6 32.2 25.5 4.3 4 11.5 9.7 15.9 12.6 6.5 4.2 8.1 5.7 7.7 7.2-.3 1.1-4.4 6.4-9.1 11.7-9.1 10.4-20.5 25.4-19.8 26.1 1.1 1.1 10.6-6 23.9-17.8 15.4-13.7 16-14 19.7-9.5.7.8 3.2 2.4 5.6 3.5 2.4 1 4.4 2.2 4.4 2.6 0 .3-1.8 2.9-4 5.6-7.5 9.4-4.4 12.3 5.9 5.5l6.8-4.5 9.4 6.2c5.2 3.3 11.2 7.5 13.3 9.2 2.1 1.8 5 3.4 6.5 3.7 1.4.3 5.7 2.8 9.5 5.7 3.8 2.8 8 5.3 9.2 5.6 1.2.3 2.5 1.2 2.8 1.9.6 1.5-1.4 2.9-10.1 7.3-6.3 3.2-12 8.3-14 12.4-.7 1.3-2.5 5.3-4.2 9-3.5 7.4-6.4 9.8-15 12.4-5.2 1.5-5.5 1.8-21.8 19.4-7.9 8.5-9.3 10.8-9.3 14.6 0 5.3.9 6.4 4.8 6.4 2.9 0 4.2-.8 7.6-4.4 4.4-4.7 7.9-6.6 12.6-6.6 2.5 0 3.1.5 4.2 4.1 1.1 3.7 1 4.5-1 8.3-4.6 8.6-10.9 15.3-18.4 19.7-13.7 7.9-14.9 9.8-32.4 48.8-4.1 9.1-8.6 17.8-10.1 19.3-1.7 1.7-4.9 3.5-8.3 4.4-3 .9-6.3 1.8-7.2 2-1.2.4-2.9-1.3-5.8-5.6l-4.1-6 16.9-21.8c9.3-11.9 21.1-26.7 26.2-32.7 11.2-13.3 12-14.8 9.5-17.5-1-1.1-2.2-2-2.8-2-2.6 0-11.9 9.7-22.1 23.3-13.6 18-24 29.5-31.9 35.3l-5.8 4.3-10.2-6.5c-7.5-4.8-12.8-7.3-20.1-9.5-5.5-1.7-10.9-3.7-12-4.4-1.2-.7-5.5-1.6-9.6-1.9-4.1-.4-13.6-2-21-3.6-18.9-4.2-33.3-4.2-53.7 0-8 1.6-16.4 3-18.7 3-5.8 0-11.1 1.7-14.6 4.7-2.5 2.1-4.2 2.6-9.3 2.7-5.3.1-7.2.7-12.6 3.9-3.5 2.1-7.8 4.1-9.5 4.4-1.7.3-4.5 1.7-6.2 3-1.7 1.2-6.7 4.1-11.2 6.2-15.1 7.5-26.9 17.1-52.7 43.3-30.4 30.7-38.5 42-48.5 67-1.2 2.9-2.8 6.4-3.6 7.8-3.7 6.7-5.2 11.1-5.8 17.5-.4 3.8-1.3 7.6-2 8.5-4.6 5.3-5 7.3-5.5 36-.7 37.2-.7 37.6.1 86.1.7 41 .6 42.7-1.2 44.7-1 1.1-7 5.5-13.2 9.8-26.4 18.2-33.8 25.1-39.4 36.7-4.7 9.7-6 18.8-4.4 30.6 2.3 17.8 8.7 40.6 17.6 62.3 9.6 23.6 12.8 27.5 29.8 35.7 24.6 11.9 30.2 12.6 46.3 6.2 5.4-2.2 12.7-5.1 16.4-6.4l6.5-2.5 13.5 25c7.3 13.8 16.7 29.8 20.6 35.7 16.5 24.2 32.4 48.4 39.9 60.4 11.1 18 32.4 45.3 44.6 57.2 5.7 5.5 14.4 14.3 19.3 19.5 5 5.3 13.7 13.2 19.5 17.5 5.8 4.3 14.8 11.3 20 15.5 19.2 15.5 47.8 36.9 57.7 43.3 5.7 3.6 13.1 9.3 16.6 12.5 7.2 6.7 13 10.4 20.8 13.1 7.2 2.5 28 13.4 34.9 18.2 3 2.1 7.1 4.1 9 4.5 1.9.3 6.9 2.1 11.1 4 4.4 2 9.7 3.6 12.3 3.8 3.7.2 5.3.9 8.1 3.6 3.1 3 4.2 3.4 10.8 3.9 4.5.4 8.3 1.3 9.8 2.4 1.3.9 3.4 2.4 4.5 3.2 1.3.9 5.9 2 10.7 2.5 5.6.6 10.1 1.7 13.3 3.3 2.7 1.4 8.5 3 12.9 3.7 5.6.8 9.3 2 12.2 3.9 3.3 2.2 5.9 2.9 11.9 3.5 4.3.3 8.7 1.3 9.8 2.1 1.2.8 3.2 2.3 4.5 3.2 1.8 1.3 5 1.8 12.5 2.1 7.9.4 10.7.9 12.8 2.3 5.5 4 9.9 5 25.1 5.9 8.4.5 17.7 1.6 20.7 2.5 4.8 1.3 19.2 1.5 107 1.5h101.5l10.1-2.5c8.3-2 12.3-2.4 22-2.2 11.9.2 11.9.2 17.9-3.2 5.6-3.2 6.8-3.5 18-4.1 10-.6 12.8-1.1 17-3.3 3.4-1.7 8.5-3 15.7-4 7.7-1.1 11.5-2.1 13.8-3.7 2-1.4 5.7-2.6 10.3-3.2 4-.5 8.6-1.2 10.4-1.4 1.8-.3 5.1-2.1 7.5-4.1 4.2-3.5 4.4-3.5 10.8-2.9 6.8.6 8.9-.1 15.3-4.7 1.6-1.2 5.1-2 9.9-2.4 5.6-.4 8.9-1.3 14.2-4 4.5-2.3 8.7-3.6 12.5-3.9 8.6-.8 9.8-1.2 13.6-4.6 3.1-2.7 4.5-3.1 10.8-3.6 5.3-.4 8.7-1.3 12.7-3.4 3.3-1.7 8.4-3.3 12.5-3.9 4.7-.6 8.2-1.8 10.7-3.5 5.2-3.6 10.4-5.3 16.8-5.4 4.3 0 6.4-.6 9.7-2.9 2.4-1.6 8-4.1 12.5-5.6 13.5-4.4 35.6-15.5 41.5-20.8 6.9-6.1 11.4-7.4 19.7-5.9 9.9 1.9 23.6 1.4 42.1-1.4 9.4-1.4 24.9-2.9 34.5-3.4 10-.5 24-2 32.5-3.4 8.3-1.4 22.7-3.5 32-4.6 29.1-3.4 44.5-8.3 66-20.7 43.4-25.1 53.7-30.9 67.7-38.6 8.6-4.8 21.9-11.8 29.5-15.6 7.6-3.8 15.8-8.5 18.2-10.5l4.3-3.6 3.2 2.8c1.7 1.5 12.3 12 23.6 23.3 22.6 22.7 35.4 33.4 56.5 47.4 61.3 40.6 127.8 59.7 216.3 62.1 56.2 1.6 101.5-5.3 157.7-24.1 56.4-18.8 114.5-51.2 159-88.7 11.6-9.8 39.7-38.3 41.9-42.5 2-4 2.1-8.5 0-12.8-2.2-4.6-29.4-31.2-32.8-32.1-4.2-1-7.7 1.2-21.6 13.7-46.8 42-85.7 63-134 72.3-44.2 8.4-87.3 9.8-132.5 4.1-68.1-8.7-124.3-38.8-167.6-90-9-10.7-12.7-15.8-20.7-28.7l-6.1-9.7 4.2-2.3c4.4-2.4 31.6-30.7 57.7-59.8 23.6-26.4 32.9-34.7 55-49.2 7.5-4.9 14-13.2 28.1-35.3 11.8-18.7 20.7-30.3 37.4-49 18.2-20.3 24.8-29.7 34-48.1 8.4-16.9 12-21.3 23.6-29.2 10.5-7.1 13.1-10.3 18.7-22.7 6.1-13.7 7.2-18.2 7.5-32l.2-11 15.6-39c13.1-32.7 16.6-40.3 21.3-47.2 10.5-15.2 12.6-22.1 13.3-44l.6-16.3 11.5 11.1c13.7 13.1 22.5 19.6 34.9 25.6 23 11 52.5 13.2 75.3 5.6 23.3-7.7 40-26 46.2-50.5 1.7-6.9 2-10.1 1.5-19.3-1.4-28.4-17.5-58.4-47.2-88-29-29-65.6-49.5-116.2-65.1l-12.3-3.8v-5.8c0-7.6-1.1-10.2-12.5-27.8-10.4-16.3-18.7-32.3-23.1-44.5-2.6-7.4-3.6-8.8-13.5-19-5.8-6.1-11.8-13-13.4-15.5-1.5-2.5-3.7-5.6-5-7-1.2-1.4-3.6-7.5-5.5-14-4-13.4-6.2-16.4-13-17.4-2.5-.3-7.2-.2-10.5.4-11.4 1.9-12.3 1.6-18.8-5.7-3.1-3.6-8.2-10.2-11.1-14.8-8.1-12.2-14.7-18.8-26.5-26.5l-10.6-7h21.5l.1-3.8c0-2 0-92.9-.1-201.8l-.2-198.1 4.4-.7c2.3-.3 16.9-1.7 32.3-3.1 15.4-1.4 29.6-2.8 31.7-3.1 4.1-.6 6.2-2.6 7.2-6.6l.6-2.7 5.4 2.4c10 4.4 13 4.8 22 2.9 4.8-1 11.8-1.6 17.4-1.5 7.4.2 13.9-.7 33-4.4 29.6-5.8 78.3-16.1 100.7-21.4 53.6-12.6 102.7-24.3 107.1-25.6 5.6-1.6 6.4-2.7 6.4-8.4 0-2.1.5-5.2 1.1-7 1.1-3.2 1.1-3.2 3.3-1.3 7.6 6.8 15.9 12.2 19 12.2 3.6 0 10.3-4 15-8.9l2.9-3 5 2c4.1 1.6 5.5 1.8 8.2.9 1.9-.6 3.9-1.8 4.7-2.7.7-.9 5.9-5.2 11.6-9.6 10.2-7.9 13.2-11.5 14.6-18.3.5-2.3.2-3.4-1.3-4.9-1.9-1.6-3.4-1.7-15.3-1.2-7.3.3-15 1.1-17.1 1.7l-3.7 1.1 6 7c3.3 3.8 6 7.9 6 9 0 2.6-4.3 6.9-7 6.9-3.6 0-5.7-1.8-10.6-8.8-7.1-10.1-8.3-11.2-12.1-11.2-4.4 0-9.3 2.6-9.2 4.8 0 .9.6 5 1.3 9 1.3 7.1 1.3 7.3-.7 7-1.2-.2-3.7-2.7-5.9-5.8-4.6-6.8-9.2-11-11.9-11-2.4 0-9.2 3.3-13.7 6.7-6.2 4.7-11.6 6.3-26.4 7.8-14.5 1.6-33.4 5-35.9 6.5-1.9 1.3-.1 5.8 3.4 8.4 3.6 2.7 7.8 2.5 19.4-.9 5.1-1.4 9.7-2.4 10.2-2 2.4 1.4-3.2 10.1-8.8 13.8-5.4 3.5-9.4 4.6-22.6 6.3-7.2.9-21 3.9-34.5 7.4-25.9 6.9-38.2 9.1-65.2 12-16 1.7-51 3.9-63.4 4h-3.1l-.6-10.3c-.3-5.6-.9-11.3-1.2-12.7l-.6-2.5h12.8c8.3 0 14.4-.5 17.5-1.4 4.4-1.4 5.1-1.4 10.2.8 5 2 5.7 2.1 8.8.7 5.4-2.4 14.9-10.5 16.4-14.1.8-2.1 1.4-6.9 1.4-12 0-7.2.3-8.8 2-10.5 3.7-3.7 4-3.3 9 9.8 1.9 5.1 3.9 9.4 4.5 9.5 1.9.4 5.1-6.2 6.8-14 3.2-14.9 7.2-17.7 28.1-19.3 12.3-1 15.7-1.6 25.9-5.1 7.7-2.6 11.6-2.4 20 .9 10.4 4.1 18.5 5.6 26.5 4.8 6.7-.7 33.8-5.9 34.6-6.7.2-.2.7-2.1 1.1-4.3l.8-3.8-7.9.6c-7.9.7-7.9.7-13.4-2.9-6.9-4.5-8.8-5-15.8-4-8.5 1.2-15.7 1.1-25.7-.4-10.7-1.6-22.1-1-40.3 2-18.4 3-34.9 2.4-48.6-2l-10-3.1-10.5 2.1c-5.9 1.1-16.6 3.4-23.8 5-17.4 3.8-24.5 3.8-36.6-.1-15.1-4.8-20.9-3.9-26.7 4.5-1.7 2.5-3.3 4.5-3.6 4.5-.3 0-2.4-1.5-4.7-3.4-8.8-7.1-11.9-7.7-25.8-5-10.4 2.1-30.1 2-48.2-.1-7.1-.8-13.1-1.5-13.4-1.5-.3 0-.3-40.8-.2-90.8l.3-90.7-21.2-.3-21.2-.2v91c0 72.1-.3 91-1.2 91-2.7 0-39.3-4.2-39.7-4.6-.7-.6 1.9-59 3.5-80.9.8-11 2.6-31 3.9-44.5 1.4-13.5 2.5-27.2 2.5-30.5 0-10.3-6-17.6-15.5-19.1-2.7-.4-13.5.5-27.7 2.2-23.2 2.8-23.7 2.8-95.5 3.2l-72.3.3V526l2.8 1.2c18.2 7.3 27.7 14.5 34.5 25.9 7.3 12.3 9.7 25.8 9.7 53.6V624h-7.2c-4 0-12-.5-17.8-1.1-9.9-1-12.5-.8-44 3-50.1 6.1-56.8 6.6-67.7 5.1-18.1-2.4-31 1.5-46.7 14-14.9 12-26 29.2-31 47.9-3.2 12-4.4 22.8-5.3 51.1-1.2 34.1-.8 46 1.6 55.5 2.7 10.3 10.1 25.4 15.1 30.6 3.3 3.5 4.3 4 6.7 3.5 4.2-1 15.4-6.7 29.7-15 7.2-4.2 13.4-7.6 13.8-7.6.4 0 .8.5.8 1.2 0 4.2-55 200.6-75 267.8-3.4 11.3-8.6 29.8-11.6 41.3-6.4 24.4-24.5 100.4-27 113l-1.7 8.8-3.1-.7c-34.5-7.3-71.5-35.7-96.9-74.4-9.1-13.8-21.4-39.3-27.1-55.7-15.3-44.7-21.3-98.2-18.6-165.8.6-16 1.5-94.3 2-174 .9-160 2-204.4 6.5-271.5 1.8-25.5 1.9-39.8.4-43.7-1.8-4.8-7.9-10.2-13.3-11.8-6.9-2.1-10.4-1.9-28.4 1.2l-15.7 2.8h-127l-.6-15.5c-.9-22-3-28.6-11.8-35.9-6.5-5.5-10.4-11.8-13.5-22.2-5.9-19.6-18.4-31-37.1-33.9-3.8-.6-13.5-2.5-21.5-4.1-21.5-4.5-24.1-4.3-53 3.4-31.2 8.4-39.6 10.9-71.9 21.4l-26.4 8.6-33.6 20.2c-39.4 23.6-44.2 26.6-70.6 43.9-37.6 24.5-101.7 68.5-111 76-2.7 2.2-17.5 14.8-32.8 27.9-15.3 13.1-28.1 23.6-28.4 23.3-1.2-1.1-7.3-28.4-9.8-42.9-4.7-28.3-5.9-44-5.9-76.2 0-40.2 3.3-69.7 11.9-105 25.3-105.3 90.9-181.7 177.1-206.4 20.8-6 33.3-7.6 60.4-7.5 27.7 0 37.3 1.4 54.4 8 29.1 11.2 52.3 34 75.2 74 33.5 58.5 58.6 81.5 98.6 90 12.3 2.7 34.7 2.4 45.1-.4 20.1-5.5 37.2-19.3 46.1-37.2 6.1-12.5 8-21.3 7.3-35-.6-11.9-3-21.3-8.4-33.4-13.5-29.7-38-58-69.3-79.8-38.6-26.8-91.6-44.9-154-52.3-12.7-1.5-61.9-2.8-71.5-1.9zm199.2 458.6c4.6 4.6 4.2 8.8-3.1 33.1-12.1 39.8-20 59.2-42 102.2-36.5 71.3-41 78.7-82 133.9-18.7 25.3-37.3 52.7-49.7 73l-5.4 8.9-8.5-.6c-9.3-.6-39.7-7.9-53.8-12.8-53.9-19.1-98.9-54.5-130.5-102.6-6.9-10.6-22-36.4-21.5-36.7.2-.1 5-3.5 10.8-7.6 55-38.4 91-63.8 98.2-69.3 4.8-3.6 11-7.4 13.8-8.4 4.3-1.5 5.6-2.6 9-8 6.7-10.3 11.4-13.2 34.5-21.3 18.7-6.5 24.1-9.3 33.4-17.6 6.2-5.5 10.5-8.1 25.8-15.5 46.5-22.5 75.5-32.7 140.8-49.5 19.9-5.1 26-5.4 30.2-1.2zm1000.5 161.3c1.6 3.6.6 3.9-4.3 1.5-3.2-1.7-3.9-2.4-2.8-3.1 2.7-1.7 5.9-1 7.1 1.6zm-81.9 20.6c1.2.6 3.2 2.3 4.4 3.7l2.2 2.6 9.3-2.6c5.1-1.5 9.4-2.5 9.6-2.3.2.1.6 5 .9 10.9l.6 10.6h-2.7c-3.3 0-9 2.3-13.9 5.7l-3.8 2.6-2.7-2.4c-1.5-1.4-5.1-4.7-8.1-7.3l-5.3-4.9-3.1 5.7c-1.6 3.1-3.3 5.6-3.8 5.6-1.3 0-3.1-10.9-2.5-14.5.9-4.7 4.6-9.6 9.1-12.2 4.5-2.5 6.6-2.8 9.8-1.2zM432.8 747.5l2.2 4.5-5.7 2.5c-8.2 3.7-9.6 3.9-11.6 1.7-1.7-1.9-1.5-2.1 5-7.5 3.7-3.1 7-5.6 7.4-5.6.3-.1 1.5 1.9 2.7 4.4zm667 15.9c-.3 18.9-.5 20.7-2.4 23.3-1.9 2.6-32.6 28.4-33.1 27.9-1.1-1 5-15.3 16.8-39.4 13.3-27.3 16.1-32.2 18.1-32.2.5 0 .8 8.7.6 20.4zm756.4.3c.2 3.2.3 80.7.1 172.3-.2 126.3-.6 171.4-1.6 186.8-.8 11.1-1.7 20.5-2.1 20.9-.3.4-5.2-.8-10.9-2.6-5.6-1.8-13.6-3.7-17.8-4.3l-7.6-1.2-1.1-20c-.7-12-1.4-66.1-1.7-134.6-.3-63-.7-137-1-164.5-.2-27.5-.1-50.5.3-51.2.7-1.1 33.4-6.9 40.4-7.2 2.5-.1 2.6.2 3 5.6zM397.4 790.5c4.5 3 8.7 7.8 7.8 8.7-.4.3-7.2 1-15.1 1.4l-14.5.7 3.1-3.9c7.5-9.5 12.3-11.3 18.7-6.9zm702 85.7c.3 2.9.8 36.8 1 75.3.3 38.5.9 76.3 1.5 84 6.2 80.1 19.4 124.8 52.3 177.5 19.7 31.6 47.7 64.9 71.4 85 18.5 15.8 43.7 30.1 65.9 37.4 19.8 6.6 34.3 8.8 68.4 10.6 10.7.5 19.5 1.1 19.6 1.2.1.2.8 9.5 1.4 20.8.7 11.3 1.8 22.7 2.6 25.5 2.6 9.1 13.7 25 19.6 28.1 1.6.8 6.1 1.6 10.1 1.7 9.9.3 11.6 1.7 17.3 13.5 8.4 17.6 25.1 39.5 33.8 44.6 8.7 5.2 19.9 5.2 30.3.1 2.8-1.4 8.2-5.5 11.9-9.1 3.7-3.6 8.3-7.2 10.1-8 4.3-1.8 11.1-1.8 16.4.1 6.1 2.1 12.8 1.9 16.9-.6 4.1-2.5 17.6-13.5 29.1-23.9 23.8-21.3 66.9-55 107.5-84.1 11.6-8.4 12.2-8.6 19-9.3 11.5-1.1 28.4-5.3 47.2-11.7 35.7-12.2 152.9-50.7 156-51.4 2.7-.5 3.4-.2 5.6 2.7 5.1 6.7 5.7 10.8 5.7 37.8v24.9l-3.2.5c-1.8.3-7.6.8-12.8 1.1-94.3 6.2-178.3 40.9-249 102.9-75.1 65.9-127 153.9-153 259.1-15.1 61.3-19.4 130.3-11.8 193 1.1 9.3 2.2 19.5 2.5 22.5l.4 5.5-24.1 12.8c-13.3 7.1-24.4 12.7-24.7 12.4-.2-.3.2-1.8 1-3.4 2.4-4.6 5.7-16.2 5.7-20.1 0-1.9 1.2-5.9 2.6-8.9 1.8-3.6 3-8.6 3.9-15.6.9-6.9 2.2-12.1 4-16.1 2.2-4.6 3-8.2 3.6-16.5.4-5.8 1.7-14.9 2.9-20.1 3.3-14.1 3.7-28.6 3.5-105-.2-60.1-.5-70.4-1.9-76.5-2.3-10-4.6-26.1-4.6-32.4 0-4.1-.6-6.4-2.4-9-1.8-2.7-2.7-5.9-3.4-12.8-.9-7.1-1.9-10.6-4.6-16.2-2.4-4.6-3.6-8.4-3.6-11.1 0-4.6-1.9-9.9-4.3-11.9-1-.7-1.7-2.6-1.7-4.1 0-1.5-2.2-7.1-4.8-12.6-2.7-5.4-5.7-12.2-6.6-15.1-2.2-6.6-11.1-22-32.1-55.8-24-38.7-32.4-50.5-57.8-81.5-27.1-33.1-44.4-50.2-70.2-69.7-7.7-5.8-16.5-12.7-19.5-15.3-3-2.6-8.9-7.2-13-10.2-4.1-3.1-11.7-8.9-16.7-13-5.1-4.1-12-9-15.4-10.9-5.9-3.3-7.8-4.6-21.7-14-20.8-14.2-34.2-22.7-38.2-24.2-2.9-1.1-5.2-2.8-6.3-4.7-1-1.7-2.5-3-3.3-3-2.2 0-9.2-3.7-14.9-7.9-2.7-2-8.1-5.4-12-7.6-3.8-2.1-16.2-9.3-27.5-16-30.3-18.1-39.9-23.5-44.9-25.5-2.5-1-9.3-4-15.1-6.7-5.8-2.7-13.7-6.2-17.7-7.7s-10-4.6-13.5-6.8c-3.5-2.3-11.4-6.3-17.6-9-6.2-2.6-13.5-6-16.2-7.3-2.7-1.4-6.1-2.5-7.5-2.5-3.5 0-8.6-2.3-10.9-4.9-1.3-1.4-3.1-2.1-5.6-2.1-2.6 0-5.6-1.3-10.7-4.5-4.5-2.9-8.5-4.7-11.1-4.9-2.2-.3-5.9-1.7-8.1-3.2-2.3-1.5-6.4-3.1-9.2-3.5-3-.5-6.6-2-9.1-3.8-2.3-1.7-5.4-3.1-6.9-3.1-3.6 0-7.9-1.7-10.4-4-1.1-1.1-5.1-2.9-8.8-4-6.6-2.1-8.7-3.9-8.7-7.8 0-2.4 19.6-26.8 33.8-42 19.9-21.5 29.2-32.8 44.4-54.2 5.3-7.4 13.9-18.3 19.2-24.2 6.6-7.2 10.6-12.7 12.6-17 5.7-12.5 14.7-27 18.2-29.1 1.8-1.1 10-5.1 18.1-8.9 32.9-15.4 65.7-35 92.2-55.2 3.3-2.5 6.3-4.6 6.7-4.6.4 0 .9 2.4 1.2 5.2zm562.4 127.3l-.3 96-2.7 9.7c-6 21.9-14.9 35.9-36.3 57.3-26.6 26.7-53.5 46.1-86 62-10.4 5.1-19.8 9.5-20.7 9.9-3.1 1-2.1-4.7 2.8-16.7 9.8-24.2 22.2-46.2 34.2-61 11.8-14.4 12.4-15.5 17.7-33.2 6.1-20.3 16.2-43.1 27.6-62.7 8-13.7 13.2-28 16.9-46.3 2.3-11.6 39-123.9 43.9-134.4l2.6-5.6.3 14.5c.1 8 .1 57.7 0 110.5zM583.5 919c45.6 27.8 91.9 44 148.3 51.6 10.5 1.4 13.2 2.1 13.2 3.3 0 .9-8.2 11.3-18.1 23.1-9.9 11.8-21.3 25.9-25.2 31.2-5.3 7.2-7.8 9.7-9.4 9.8-1.3 0-2.3-.5-2.3-1 0-.6-.9-1.9-2-3-1.6-1.6-2.8-1.9-5.6-1.4-3 .6-3.9.2-7.8-3.4-2.5-2.3-8-5.9-12.3-8.1-5.5-2.8-9.1-5.4-12-9-2.4-2.7-9.8-9.4-16.5-14.8-17.1-13.7-19.3-15.7-34.1-33.1-16.5-19.3-20.7-24.9-25.4-33.7-2-3.9-4.9-9-6.5-11.4-1.6-2.7-2.8-5.9-2.8-7.9v-3.4l3.3 1.9c1.7 1.1 8.6 5.3 15.2 9.3zm-264.6 1.9l3.4 1.8-2.4 1.5c-1.3.9-5.5 3.4-9.4 5.7-6.3 3.7-7 3.9-7.3 2.2-.5-2.8 1.6-9.8 3.4-11.6 2.1-2 8.1-1.8 12.3.4zm487 62.8l-8 7.8 4.2 12c4 11.5 4.1 12.1 2.8 16-1.5 4.3-6.7 8.5-10.4 8.5-3.4 0-6.9-4-9.6-10.8-2.6-6.9-4.1-8-6.7-5.4-1.7 1.7-2.4 4.6-5.2 22.9-1.5 9.3-6.3 19.1-13.5 27.4l-5.8 6.7-8.3-3.3c-4.6-1.8-11.6-5.1-15.6-7.3-6.7-3.7-7.3-4.3-7-6.9.6-4.7 28.6-41.3 44.2-57.8 3.6-3.9 8.1-9.1 9.8-11.7 3.7-5.4 3.3-5.3 25.4-5.6l11.7-.2-8 7.7zm-71.9 33.7c0 4-.9 5.6-10 17.8l-10.1 13.5-3.7-.7c-3.8-.7-8.2-2.9-8.2-4.2 0-3.7 10.8-17.8 20.5-26.7 3.5-3.2 5.2-4.1 8-4.1 3.5 0 3.5 0 3.5 4.4zm-90.1 345c.6.8 3.8 2.4 7 3.6 5.6 2.1 10.5 5.7 12.6 9.4.6 1 3.1 2.2 6 2.8 3.6.7 5.9 2 8.1 4.4 2.6 2.8 3.9 3.4 7.2 3.4 3.6 0 4.5.5 7.3 4 1.9 2.3 4.1 4 5.3 4 2.8 0 11.3 4.1 20 9.5 3.9 2.4 9.5 5 12.4 5.8 3.8.9 5.7 2 6.5 3.7.8 1.4 2.8 2.8 5.4 3.5 2.4.7 5.9 2.7 7.9 4.5 2.8 2.4 4.4 3.1 7.3 2.9 4.9-.2 6.7.7 8.1 4.2 1.4 3.2 4.4 4.5 9 3.6 2.4-.5 3.2-.1 5.4 2.8 2.1 2.7 3.6 3.5 7.3 4.1 3.7.5 5.5 1.6 8.7 4.9 3 3 6.4 5 12.6 7.4 4.6 1.8 9.8 4.4 11.5 5.8 3.7 3.2 9.3 5.6 11.2 4.9.8-.3 3.5 1 6 2.9 2.6 2 5.8 3.8 7.2 4.1 1.4.4 4 2.2 5.8 4 1.8 1.9 4.2 3.4 5.4 3.4 2.8 0 13.1 6.3 17.5 10.6 2.5 2.5 4.2 3.4 6.8 3.4 2.7 0 4 .7 6.4 3.7 2.4 3.1 3.7 3.8 7.8 4.2 3.9.5 5.1 1.1 6.1 3.1 1.8 3.7 4.2 5 9 5 4 0 4.5.3 5.4 2.9.9 2.5 2.6 3.6 11 7.2 5.5 2.3 12.6 5.9 15.7 8 3.1 2.1 7.8 4.4 10.4 5 4.7 1.2 4.8 1.4 4.8 5.1v3.8h-22.9c-25.8 0-39.3.8-86.6 5.1-56 5-75.1 7.4-123 15.5-38.8 6.5-59 11.1-121.5 27.8-21.7 5.7-47.8 12.5-58 15.1-10.2 2.5-32.6 9.3-49.8 15.1-17.3 5.8-31.6 10.3-31.9 10-.3-.2.5-4.7 1.6-9.8 3-12.8 3.7-17.6 4.6-30.1l.7-10.7 3.1-1.6c9.7-5 15.2-11.7 40.2-49.4 17.3-26.1 20.6-29.9 35.4-40.5 13.5-9.7 21-20.2 25.5-35.7 3.7-12.7 5.7-16 17.5-28.2 5.8-6.1 16.4-18.6 23.5-27.6 12.3-15.7 26.4-31.9 27.7-32 .4 0 1.2.6 1.8 1.4zm1267.7 55.8c.7.8-3.6 23.9-7.2 38.3-12 48.1-28.6 86-59.1 134.7-23.8 38.1-59.9 86.4-91.6 122.8-20.3 23.3-95.9 96-104.4 100.3l-3.1 1.6-1.1-6.2c-7.7-44.7-7.9-102.8-.5-146.2 8.8-52.2 27.6-102.5 51.7-138.7 34.5-51.6 84.6-88.3 139.2-101.8 19.2-4.8 30.4-5.9 54.2-5.7 11.7.2 21.5.6 21.9.9zm-983.9 133.3c2.7.8 8.1 3.8 11.9 6.6 3.8 2.8 8.2 5.8 9.8 6.6 4.6 2.4 16.2 6.1 22.4 7.2 8.7 1.6 47.3 6.1 59.5 7 10.1.7 11.1 1 15.5 4.2 8.7 6.2 21.7 14.6 27.2 17.6 3 1.7 11.7 7.1 19.2 12l13.8 8.9-4 3.9c-5.5 5.4-8.2 5.2-25-2-27.7-11.8-23-10.8-53.5-11.5l-27-.7-9-3.3c-8.3-3.1-10-3.3-21-3.4-11.4-.1-13.2.2-35.4 5.6-12.9 3.2-24.8 5.8-26.5 5.8-1.8 0-5.9-.9-9.1-2.1-7.7-2.7-11.7-2.2-27.3 3.6-16.9 6.3-19.7 6.1-25.2-2-1.7-2.5-3.9-4.9-5-5.5-1.7-.9-51-5.4-51.7-4.7-.1.2.7 1.3 2 2.5 1.8 1.7 4.3 2.3 15.7 3.3 13.2 1.2 17 2.3 17 5.4 0 1.3-4.6 5.8-7.6 7.3-1.1.6-22.5 4.7-47.5 9.2-98.6 17.5-126.4 23.1-136 27-3.9 1.7-7.5 3-7.8 3-.4 0-1.7-2.1-3-4.6l-2.2-4.7 2.7-2.9c3-3.1 6.7-4.4 45.9-16.3 12.1-3.7 22.5-7.2 23-7.7.7-.7-1.4-.8-6-.4-3.8.3-10.5.9-14.7 1.2l-7.8.6v-3.5c0-6.6 5.9-9.3 34-15.5 24.6-5.5 51.6-10.5 73-13.6 9.6-1.4 21.3-3.3 26-4.2 7.8-1.4 13.9-1.4 29 0 4 .4 9.8-1.2 14.1-3.9 6.1-3.9 13.3-5.2 41.4-7.5 28.7-2.3 30.8-2.6 30.3-4.2-.7-2-8.9-5.8-12.4-5.8-1.7 0-9.4.9-17.1 2.1-13.3 2-22.5 2.1-34.5.3-3.4-.5-3.8-.9-3.8-3.5 0-4.5 2.5-8.4 6.6-10.4 3.1-1.5 22.9-4 60.9-7.8 8.9-.8 14.4-.6 19.2.8zm-108.1 9.1c2.1 1.5 4.1 2.8 4.3 3 .3.3-2.1 3.1-5.4 6.4l-5.8 5.9-1.7-2.2c-2.4-3.1-5-8.3-5-10.2 0-2.5 3.8-5.5 6.9-5.5 1.5 0 4.6 1.2 6.7 2.6zm-32.6 13.6l4.4 1.4-2.9 2.1c-9.8 6.8-18.2 9.4-41.5 12.8-9.6 1.3-22.1 3.6-27.8 5-5.7 1.4-11.7 2.5-13.3 2.5-2.7 0-2.9-.2-1.9-2 1.4-2.6 10.2-9.2 16.6-12.4 5.5-2.7 23.6-8.1 34.8-10.2 8.4-1.6 25-1.2 31.6.8zm-132.5 27.2c1.9.8 3.5 1.9 3.5 2.5 0 .5-2.8 1.9-6.2 3-12 3.9-37.2 11-37.6 10.6-.6-.5 2.4-5.2 5.2-8.3 6.2-6.9 26.4-11.4 35.1-7.8zm1252 77.6c5.3 4.2 6.8 6.5 5.2 7.7-2.8 2.2-20.1 11.5-25 13.4l-5.2 2.1-2.7-3.3c-1.6-1.8-2.8-3.9-2.8-4.6 0-.6 2.1-2.7 4.8-4.5 2.6-1.7 7.6-5.6 11.1-8.5 3.6-2.9 7.5-5.3 8.7-5.3 1.1 0 3.8 1.4 5.9 3zm-812.7 8.9c24 6.3 63.6 18.1 76.2 22.8 12.5 4.6 23.6 10.2 33.5 16.8 4.4 2.9 8.9 5.6 10 5.9 1.5.4 3.7 4.1 7.4 12.3 7.3 16.3 8.9 21 10.4 30.5.8 4.6 2.3 10.1 3.4 12.3 3.3 6.4 4.3 11.6 5.3 26.8.5 8.5 1.7 17.8 3.1 23.2 2 8.3 2.2 11.5 2.3 40 .1 29.6 0 31.4-2.3 40.5-1.5 5.8-2.7 14.3-3.1 22-.7 12.3-1 13.6-6.6 28-.7 1.9-1.3 4.9-1.4 6.6 0 4.2-2.7 12.9-4.4 14.3-.8.7-2.9 5.6-4.6 10.9-3.9 11.7-9.8 24-18.1 37.7l-6.2 10.3-13.1.6c-7.2.4-18.7 1.2-25.6 1.8-19.8 1.7-50.8-1.1-64.8-5.8-20.9-7-47.2-25.4-52.7-36.9-1.3-2.7-2.1-7.2-2.5-14.1-.6-11.2-1-12.1-9.1-21-5.7-6.3-10.2-13-14.9-22.4-6-12-7.1-16.4-8-32.5-.5-8.3-1.2-20.6-1.6-27.5-.8-14.7.4-23.1 4.6-33.5 4.6-11 5.3-15.3 3.2-19.6-2-4-12.4-18.9-13.2-18.9-.3 0-1.1 5.7-1.8 12.7-1.3 13.5-5.1 33.2-10.1 52.1-4.7 17.8-5.5 25.2-4.8 48.2.9 29.7 5.2 59 11.4 77.9 3 9.3 12.2 28.5 25.4 53.3l10 18.8 25.7 30.7c14.1 17 29.2 34.5 33.6 39.1l8 8.3-7 7c-4.1 4.2-9.2 8.2-12.7 9.9-3.3 1.6-7.7 4.6-9.9 6.5-5.6 5.1-12.6 9.4-17.3 10.6-2.2.6-5.6 2.2-7.6 3.5-5.1 3.5-17.6 8.6-38.9 15.9-10.2 3.4-24.6 8.6-32.1 11.4-9 3.3-16.1 5.3-20.5 5.7-4.9.4-8.4 1.5-12.1 3.5-4 2.3-7.1 3.1-14.5 3.8-5.2.6-13.7 2.3-19.3 4.1-7.7 2.4-13.1 3.4-23.5 4.1-8 .6-17.8 2-24 3.5-12.9 3.2-27 3.5-40.9.9-9.8-1.8-16-1.8-34.9.5-6 .7-22.5 1-46.5.7-33.1-.4-38.3-.7-47.2-2.6-6.3-1.4-15.4-2.4-24.5-2.7-18.4-.6-20.3-.9-23.9-3.9-1.6-1.4-4.1-2.5-5.5-2.5-1.5 0-7.6-1.6-13.6-3.5-6-2-14.9-4.4-19.8-5.5-4.9-1.1-11.3-3.1-14.3-4.4-2.9-1.4-8.7-3.3-12.9-4.1-4.1-.9-9.1-2.5-11.1-3.5s-7.7-3-12.7-4.4c-5-1.5-13.2-4.4-18.1-6.5-4.9-2.2-10.6-4.3-12.7-4.6-2.2-.4-5.5-1.8-7.5-3.1-2-1.4-7.9-4-13-5.8-5.2-1.8-10.8-4-12.4-4.8-1.7-.8-4.7-1.8-6.7-2.1-2.1-.3-5.2-1.7-7-3-1.8-1.4-8-4.7-13.8-7.4-20.9-9.8-80-46.7-90.4-56.4-3.9-3.6-10-8.6-13.6-11.1-3.6-2.5-9.9-8.1-14-12.4-9.6-10-38.1-45.5-47.7-59.4-28.6-41.3-53.5-81-57-90.9-1.3-3.5-2.2-6.5-2.1-6.6.2-.1 4.4-2.9 9.3-6.2 10.4-7 14.6-9.2 32.2-16.9 18.9-8.2 45.3-22 57.8-30.1 9.4-6.1 14.2-8.3 33-15.3 21.4-8 33.7-13.1 103-43 35.8-15.4 56.4-23.8 100.5-40.8 31.4-12.1 37.7-14.2 42.9-14.2 3.6 0 48.9-13.1 60.7-17.6 8-3 18.7-8.3 25.9-12.9 6.8-4.4 10.1-4.4 16-.3 7.4 5.2 10.1 4.7 31.7-6.5 18.2-9.4 27.4-12.9 58.3-22.2 12-3.6 63.7-13.5 70.7-13.5 2 0 6.7.7 10.5 1.6 8.6 2 14 1.4 30.7-3.7 16.7-5 20.8-5.5 27.6-3.5 8.7 2.6 16.8 1.9 49.1-4 48.1-8.7 52.8-9.4 66.9-8.9 11.1.3 14.7 1 31.8 5.4zm688.3 49.6c2.2 1.4-5.4 12.5-16.8 24.5-6.5 6.9-12.8 13.9-14.1 15.7-2.7 3.8-3 10.1-.5 11 1 .4 6.4-.9 12.7-3.1 12-4.2 11.7-4.2 13.7 2.8 1.5 5.7.4 8.4-6.3 15.1l-6 6 .8 9.4.7 9.4-2.5-.6c-7.2-1.9-16.9-2-21.3-.3-2.5 1-4.5 2.1-4.5 2.5 0 .4 2.7 3.3 6 6.3 4.2 3.8 6 6.2 6 7.9 0 3.1-5.8 17-10.5 25.5-5.3 9.4-14.5 18.8-25.6 25.9-11.9 7.8-21.6 16.1-29.4 25.3-3.3 3.9-6.3 6.8-6.7 6.4-.6-.6-7.8-19.8-7.8-20.8 0-.2 3.5-2.1 7.8-4.3 4.2-2.3 11.4-7 16-10.6 7.4-5.8 8.2-6.8 8.2-9.9 0-7.5-2.3-6.7-19.2 6.7-4.8 3.7-10.4 7.4-12.6 8.1l-4 1.4-6.5-21.6c-7.9-26.3-7.7-25.6-7-30.7.4-3.5 1.2-4.5 4.7-6.8 2.2-1.4 24.1-22.7 48.6-47.2 24.5-24.6 45.8-45.6 47.3-46.7 1.5-1.1 6.5-3.5 11-5.4 6.5-2.7 9.1-3.3 12.5-2.9 2.4.3 4.8.7 5.3 1zm-281.7 225.7c3.7 15.1 11.2 37.5 17.6 52.8 8.3 19.9 9.7 24.2 8.1 24.8-.7.2-13.8 6.7-29 14.3-34.1 17-82.5 44.5-91.2 51.8-3.5 3-9.2 6.7-12.7 8.4-5.8 2.7-7 2.9-14.5 2.5-4.6-.2-8.8-.7-9.4-1.1-1.8-1.1-.1-4.8 6.6-14 9.2-12.7 25.7-40 31.6-52.2 11.3-23.4 18.6-39.8 20.7-46.3 1.4-4.5 3.1-7.5 5-9 2-1.7 2.8-3.2 2.8-5.6 0-2.6.6-3.5 2.6-4.5 1.5-.6 13.3-7.8 26.3-15.8 27.3-16.9 27.9-17.3 30.6-17.3 1.7 0 2.4 1.6 4.9 11.2zm-336.7 135c-8.5 10.1-15.9 18.2-16.5 18.1-20.1-4.2-25-6.1-34.1-13.3-10-7.9-19.5-19-17.3-20.3.4-.3 5.7-.8 11.7-1.2 8.4-.5 12.8-.3 18.5.9 9.7 2.1 21.8 1.9 35-.4 5.8-1 12.2-1.8 14.3-1.9l3.8-.1-15.4 18.2z"/><path d="M1980.6 864.4c-14.8 6.2-23.6 22.6-20.6 38.1 3.3 17.1 16.3 27.7 34 27.8 9.8.1 18-3.4 24.6-10.5 7-7.5 8.9-12.5 8.9-23.8 0-8.9-.2-9.9-3.4-15.8-6.4-11.7-15.5-17.3-29.1-17.9-7.3-.3-9.3 0-14.4 2.1zM225.6 968.8c-.3.5-1.5 5.8-2.8 12-2.1 10.5-2.2 11.2-.6 14.6 1 1.9 2.6 4 3.8 4.6 1.9 1 2 .8 2-7 0-7.1.2-8 1.8-8 3.8 0 12.5-3.3 14.8-5.5 1.7-1.7 2.4-3.5 2.4-6.4V969l-3.2 2c-4.5 2.7-9.5 2.5-14-.5-2-1.4-3.9-2.1-4.2-1.7zM426.3 1349.3c-3.8 4-16.4 18.2-27.8 31.7-11.5 13.5-26.3 30.5-32.9 37.8-6.7 7.4-12.5 14-12.9 14.8-1 1.8.9 5.4 2.9 5.4 2.8 0 6.4-3.2 19.6-17.4 16.1-17.3 30.1-34.3 42.9-52.4 9.3-12.9 16.8-25.7 15.8-26.7-.3-.2-3.7 2.8-7.6 6.8zM467 1346.7c0 1.7-10.4 15-17.4 22.1-3.3 3.5-8.8 8.2-12.1 10.4-9.8 6.7-12.6 9.9-15 17.7-.7 2.3-.4 2.2 7-1.7 17.9-9.7 29.1-21.4 37.2-38.9 3.2-6.9 3.3-7.7 1.9-9.1-.9-.9-1.6-1.1-1.6-.5zM412.5 1409.5c-8 7.9-16.4 21.2-15 23.5 1.3 2.1 6.3.9 10.7-2.4 8.3-6.4 13.3-16 12.6-24.6l-.3-4.5-8 8z"/></svg>